name ../AP_Laxity/ap_90.mot
datacolumns   7
datarows 100
range   14.00000000 14.99000000
cursor 1.0 1.0 0.0
keys m_key
wrap
enforce_loops no
enforce_constraints no
calc_derivatives -1.000000
event_color 0.000000 0.000000 0.000000
endheader
            time femur_r_force_vx femur_r_force_vy femur_r_force_vz femur_r_force_px femur_r_force_py femur_r_force_pz 
     14.00000000       0.00000000       2.22135971       0.00000000      -0.06999998      -0.44905096       0.00000000 
     14.01000000       0.00000000       2.14846194       0.00000000      -0.06999998      -0.44905096       0.00000000 
     14.02000000       0.00000000       2.07675409       0.00000000      -0.06999998      -0.44905096       0.00000000 
     14.03000000       0.00000000       2.00623792       0.00000000      -0.06999998      -0.44905096       0.00000000 
     14.04000000       0.00000000       1.93691520       0.00000000      -0.06999998      -0.44905096       0.00000000 
     14.05000000       0.00000000       1.86878765       0.00000000      -0.06999998      -0.44905096       0.00000000 
     14.06000000       0.00000000       1.80185697       0.00000000      -0.06999998      -0.44905096       0.00000000 
     14.07000000       0.00000000       1.73612481       0.00000000      -0.06999998      -0.44905096       0.00000000 
     14.08000000       0.00000000       1.67159281       0.00000000      -0.06999998      -0.44905096       0.00000000 
     14.09000000       0.00000000       1.60826258       0.00000000      -0.06999998      -0.44905096       0.00000000 
     14.10000000       0.00000000       1.54613569       0.00000000      -0.06999998      -0.44905096       0.00000000 
     14.11000000       0.00000000       1.48521369       0.00000000      -0.06999998      -0.44905096       0.00000000 
     14.12000000       0.00000000       1.42549809       0.00000000      -0.06999998      -0.44905096       0.00000000 
     14.13000000       0.00000000       1.36699037       0.00000000      -0.06999998      -0.44905096       0.00000000 
     14.14000000       0.00000000       1.30969200       0.00000000      -0.06999998      -0.44905096       0.00000000 
     14.15000000       0.00000000       1.25360439       0.00000000      -0.06999998      -0.44905096       0.00000000 
     14.16000000       0.00000000       1.19872894       0.00000000      -0.06999998      -0.44905096       0.00000000 
     14.17000000       0.00000000       1.14506702       0.00000000      -0.06999998      -0.44905096       0.00000000 
     14.18000000       0.00000000       1.09261996       0.00000000      -0.06999998      -0.44905096       0.00000000 
     14.19000000       0.00000000       1.04138907       0.00000000      -0.06999998      -0.44905096       0.00000000 
     14.20000000       0.00000000       0.99137561       0.00000000      -0.06999998      -0.44905096       0.00000000 
     14.21000000       0.00000000       0.94258083       0.00000000      -0.06999998      -0.44905096       0.00000000 
     14.22000000       0.00000000       0.89500595       0.00000000      -0.06999998      -0.44905096       0.00000000 
     14.23000000       0.00000000       0.84865214       0.00000000      -0.06999998      -0.44905096       0.00000000 
     14.24000000       0.00000000       0.80352057       0.00000000      -0.06999998      -0.44905096       0.00000000 
     14.25000000       0.00000000       0.75961235       0.00000000      -0.06999998      -0.44905096       0.00000000 
     14.26000000       0.00000000       0.71692857       0.00000000      -0.06999998      -0.44905096       0.00000000 
     14.27000000       0.00000000       0.67547030       0.00000000      -0.06999998      -0.44905096       0.00000000 
     14.28000000       0.00000000       0.63523857       0.00000000      -0.06999998      -0.44905096       0.00000000 
     14.29000000       0.00000000       0.59623438       0.00000000      -0.06999998      -0.44905096       0.00000000 
     14.30000000       0.00000000       0.55845869       0.00000000      -0.06999998      -0.44905096       0.00000000 
     14.31000000       0.00000000       0.52191245       0.00000000      -0.06999998      -0.44905096       0.00000000 
     14.32000000       0.00000000       0.48659656       0.00000000      -0.06999998      -0.44905096       0.00000000 
     14.33000000       0.00000000       0.45251191       0.00000000      -0.06999998      -0.44905096       0.00000000 
     14.34000000       0.00000000       0.41965934       0.00000000      -0.06999998      -0.44905096       0.00000000 
     14.35000000       0.00000000       0.38803967       0.00000000      -0.06999998      -0.44905096       0.00000000 
     14.36000000       0.00000000       0.35765368       0.00000000      -0.06999998      -0.44905096       0.00000000 
     14.37000000       0.00000000       0.32850214       0.00000000      -0.06999998      -0.44905096       0.00000000 
     14.38000000       0.00000000       0.30058575       0.00000000      -0.06999998      -0.44905096       0.00000000 
     14.39000000       0.00000000       0.27390523       0.00000000      -0.06999998      -0.44905096       0.00000000 
     14.40000000       0.00000000       0.24846123       0.00000000      -0.06999998      -0.44905096       0.00000000 
     14.41000000       0.00000000       0.22425439       0.00000000      -0.06999998      -0.44905096       0.00000000 
     14.42000000       0.00000000       0.20128530       0.00000000      -0.06999998      -0.44905096       0.00000000 
     14.43000000       0.00000000       0.17955454       0.00000000      -0.06999998      -0.44905096       0.00000000 
     14.44000000       0.00000000       0.15906265       0.00000000      -0.06999998      -0.44905096       0.00000000 
     14.45000000       0.00000000       0.13981014       0.00000000      -0.06999998      -0.44905096       0.00000000 
     14.46000000       0.00000000       0.12179749       0.00000000      -0.06999998      -0.44905096       0.00000000 
     14.47000000       0.00000000       0.10502514       0.00000000      -0.06999998      -0.44905096       0.00000000 
     14.48000000       0.00000000       0.08949351       0.00000000      -0.06999998      -0.44905096       0.00000000 
     14.49000000       0.00000000       0.07520299       0.00000000      -0.06999998      -0.44905096       0.00000000 
     14.50000000       0.00000000       0.06215394       0.00000000      -0.06999998      -0.44905096       0.00000000 
     14.51000000       0.00000000       0.00000000       0.00000000      -0.06999998      -0.44905096       0.00000000 
     14.52000000       0.00000000       0.00000000       0.00000000      -0.06999998      -0.44905096       0.00000000 
     14.53000000       0.00000000       0.00000000       0.00000000      -0.06999998      -0.44905096       0.00000000 
     14.54000000       0.00000000       0.00000000       0.00000000      -0.06999998      -0.44905096       0.00000000 
     14.55000000       0.00000000       0.00000000       0.00000000      -0.06999998      -0.44905096       0.00000000 
     14.56000000       0.00000000       0.00000000       0.00000000      -0.06999998      -0.44905096       0.00000000 
     14.57000000       0.00000000       0.00000000       0.00000000      -0.06999998      -0.44905096       0.00000000 
     14.58000000       0.00000000       0.00000000       0.00000000      -0.06999998      -0.44905096       0.00000000 
     14.59000000       0.00000000       0.00000000       0.00000000      -0.06999998      -0.44905096       0.00000000 
     14.60000000       0.00000000       0.00000000       0.00000000      -0.06999998      -0.44905096       0.00000000 
     14.61000000       0.00000000       0.00000000       0.00000000      -0.06999998      -0.44905096       0.00000000 
     14.62000000       0.00000000       0.00000000       0.00000000      -0.06999998      -0.44905096       0.00000000 
     14.63000000       0.00000000       0.00000000       0.00000000      -0.06999998      -0.44905096       0.00000000 
     14.64000000       0.00000000       0.00000000       0.00000000      -0.06999998      -0.44905096       0.00000000 
     14.65000000       0.00000000       0.00000000       0.00000000      -0.06999998      -0.44905096       0.00000000 
     14.66000000       0.00000000       0.00000000       0.00000000      -0.06999998      -0.44905096       0.00000000 
     14.67000000       0.00000000       0.00000000       0.00000000      -0.06999998      -0.44905096       0.00000000 
     14.68000000       0.00000000       0.00000000       0.00000000      -0.06999998      -0.44905096       0.00000000 
     14.69000000       0.00000000       0.00000000       0.00000000      -0.06999998      -0.44905096       0.00000000 
     14.70000000       0.00000000       0.00000000       0.00000000      -0.06999998      -0.44905096       0.00000000 
     14.71000000       0.00000000       0.00000000       0.00000000      -0.06999998      -0.44905096       0.00000000 
     14.72000000       0.00000000       0.00000000       0.00000000      -0.06999998      -0.44905096       0.00000000 
     14.73000000       0.00000000       0.00000000       0.00000000      -0.06999998      -0.44905096       0.00000000 
     14.74000000       0.00000000       0.00000000       0.00000000      -0.06999998      -0.44905096       0.00000000 
     14.75000000       0.00000000       0.00000000       0.00000000      -0.06999998      -0.44905096       0.00000000 
     14.76000000       0.00000000       0.00000000       0.00000000      -0.06999998      -0.44905096       0.00000000 
     14.77000000       0.00000000       0.00000000       0.00000000      -0.06999998      -0.44905096       0.00000000 
     14.78000000       0.00000000       0.00000000       0.00000000      -0.06999998      -0.44905096       0.00000000 
     14.79000000       0.00000000       0.00000000       0.00000000      -0.06999998      -0.44905096       0.00000000 
     14.80000000       0.00000000       0.00000000       0.00000000      -0.06999998      -0.44905096       0.00000000 
     14.81000000       0.00000000       0.00000000       0.00000000      -0.06999998      -0.44905096       0.00000000 
     14.82000000       0.00000000       0.00000000       0.00000000      -0.06999998      -0.44905096       0.00000000 
     14.83000000       0.00000000       0.00000000       0.00000000      -0.06999998      -0.44905096       0.00000000 
     14.84000000       0.00000000       0.00000000       0.00000000      -0.06999998      -0.44905096       0.00000000 
     14.85000000       0.00000000       0.00000000       0.00000000      -0.06999998      -0.44905096       0.00000000 
     14.86000000       0.00000000       0.00000000       0.00000000      -0.06999998      -0.44905096       0.00000000 
     14.87000000       0.00000000       0.00000000       0.00000000      -0.06999998      -0.44905096       0.00000000 
     14.88000000       0.00000000       0.00000000       0.00000000      -0.06999998      -0.44905096       0.00000000 
     14.89000000       0.00000000       0.00000000       0.00000000      -0.06999998      -0.44905096       0.00000000 
     14.90000000       0.00000000       0.00000000       0.00000000      -0.06999998      -0.44905096       0.00000000 
     14.91000000       0.00000000       0.00000000       0.00000000      -0.06999998      -0.44905096       0.00000000 
     14.92000000       0.00000000       0.00000000       0.00000000      -0.06999998      -0.44905096       0.00000000 
     14.93000000       0.00000000       0.00000000       0.00000000      -0.06999998      -0.44905096       0.00000000 
     14.94000000       0.00000000       0.00000000       0.00000000      -0.06999998      -0.44905096       0.00000000 
     14.95000000       0.00000000       0.00000000       0.00000000      -0.06999998      -0.44905096       0.00000000 
     14.96000000       0.00000000       0.00000000       0.00000000      -0.06999998      -0.44905096       0.00000000 
     14.97000000       0.00000000       0.00000000       0.00000000      -0.06999998      -0.44905096       0.00000000 
     14.98000000       0.00000000       0.00000000       0.00000000      -0.06999998      -0.44905096       0.00000000 
     14.99000000       0.00000000       0.00000000       0.00000000      -0.06999998      -0.44905096       0.00000000 
